<?xml version="1.0" encoding="UTF-8"?>
<svg version="1.1" viewBox="0 0 2048 2048" width="1280" height="1280" xmlns="http://www.w3.org/2000/svg">
<path transform="translate(189,47)" d="m0 0h1521l28 2 19 4 18 6 21 10 17 11 10 8 11 10 14 14 13 17 12 19 11 23 7 19 6 22 4 24 1 11 1 28v676l1 175 23 23 9 12 8 16 4 13 2 12v16l-4 20-7 16-8 12-11 12-6 6 1 4 11 23 10 25 7 20 28 2 16 4 14 6 12 8 12 11 8 10 10 19 4 12 1 1v114l-2 1-5 14-7 13-10 13-10 9-11 7-12 6-13 4-14 2h-22l-1 7-10 27-13 29-4 10 14 14 10 14 6 13 4 12 2 12v17l-3 16-6 16-6 10-8 11-58 58-12 9-16 8-12 4-11 2h-22l-18-4-12-5-14-9-13-12-5-5-5 1-29 13-26 10-12 4-1 1-1 25-4 18-6 14-7 11-7 9-8 7-11 8-14 7-13 4-13 2h-90l-17-3-13-5-12-7-10-8-9-9-7-10-8-15-4-13-2-12v-24l-11-3-26-10-35-16-13 13-12 9-16 8-17 5-7 1h-21l-18-4-16-7-11-8-10-9-54-54-10-14-7-14-4-13-1-6v-25l4-18 8-17 6-9h2l2-4 10-11 3-2-1-6-11-23-9-23-7-20v-2h-344l-12-3-10-6-8-9-6-13-1-13 3-12 5-9 5-5 7-6 12-5 242-1 1-93 4-17 7-16 9-13 9-10 13-10 16-8 13-4 15-2h20l3-11 10-27 13-28 2-5-4-5-5-5-10-11-8-13-6-15-3-13v-25l3-14 5-13 7-12 10-13h2v-2h2l2-4 46-46 11-9 12-8 15-6 14-3h27l16 4 11 5 12 7 13 11 8 8 6-2 25-12 23-9 17-6h2v-26l4-18 5-11 5-9 9-12 9-9 13-9 12-6 13-4 13-2h85l16 2 13 4 14 7 12 9 5 4 9 11 7 11 7 16 3 13 1 8 1 20 31 11 25 11 15 7 4-1 15-15 14-9 10-5 14-4 7-1h24l1-5 1-401h-1740l1 740 3 25 6 21 7 17 8 14 8 11 9 10 7 7 16 11 15 7 11 3 22 2 240 1 11 4 8 6 8 9 5 12 1 4v10l-4 13-6 9-9 8-12 5-8 1h-246l-21-2-21-5-16-6-17-8-14-9-12-9-14-12-7-7v-2h-2l-9-11-11-15-9-15-8-16-6-14-7-21-6-28-2-9v-1188l2-8 6-28 7-21 9-20 9-17 11-16 11-14 9-9 2-3h2l1-3 11-9 10-8 16-10 23-11 15-5 19-4zm-7 82-17 3-15 6-11 7-9 7-10 9-9 11-9 14-8 15-8 24-3 14-2 22v320h1739l1-1v-315l-2-26-5-21-7-19-9-17-10-14-9-10-11-10-16-10-19-7-15-2zm1311 922-5 2-2 4-1 51-2 11-5 10-8 9-12 6-34 10-22 8-20 9-23 12-17 10-11 3h-14l-11-4-8-6-10-9-25-25-4-2-6 1-10 9-43 43-4 7 2 6 9 10 26 26 7 11 3 10v12l-4 13-13 23-9 17-11 27-8 25-6 21-6 12-3 3v2l-4 2-8 5-11 3-54 1-5 2-2 5v79l5 5 38 1 21 1 12 5 9 7 6 10 4 11 9 31 10 26 13 27 8 14 8 16 2 8v8l-2 9-5 10-11 12-26 26-3 6 2 6 7 8 44 44 5 3h7l8-7 29-29 9-6 9-3 12-1 10 2 14 7 21 12 23 11 27 10 25 7 15 5 9 6 7 8 5 11 1 4 1 55 2 5 7 3h74l6-3 2-5 1-53 4-13 6-9 8-7 12-5 38-11 32-13 20-10 20-12 10-4 12-1 11 2 10 5 10 9 22 22h2l1 3 7 5h7l8-7 47-47 2-3v-6l-6-8-32-32-6-11-3-12 2-13 4-9 15-27 11-23 9-24 10-34 4-11 5-7v-2l4-2 5-4 12-5 12-1h35l12-1 5-5 1-5v-35l-1-40-3-5-4-1h-44l-15-2-12-6-6-5-7-11-5-16-8-27-8-21-11-24-9-17-8-14-4-10v-15l4-12 8-11 33-33 1-2v-6l-8-10-43-43-7-5-7 1-7 6v2h-2v2h-2v2h-2v2h-2v2h-2v2h-2v2h-2v2h-2v2h-2v2h-2v2h-2v2l-4 2-8 7-8 4-7 2h-16l-11-4-21-12-17-9-29-12-24-8-26-7-9-5-7-6-6-10-3-10-1-30v-22l-3-7-3-2z"/>
<path transform="translate(1205,220)" d="m0 0 368 1 17 3 16 5 19 9 12 8 10 8 15 15 10 14 9 16 7 18 4 19 1 8v23l-2 16-5 18-7 16-8 14-9 12-9 10-7 7-17 12-15 8-17 6-17 4-18 2h-367l-20-2-19-5-17-7-14-8-13-10-18-18-11-16-8-15-6-16-4-17-1-7v-29l3-17 5-16 7-16 10-16 11-13 2-3h2v-2l8-7 12-9 15-9 17-7 15-4 12-2zm-8 82-14 2-12 6-10 8-5 6-6 10-4 13v18l3 11 7 13 10 10 10 6 11 4 7 1h370l12-3 12-6 10-9 6-8 4-8 3-11v-18l-5-15-7-11-8-8-10-6-12-4-8-1z"/>
<path transform="translate(1516,1238)" d="m0 0h33l26 3 26 6 23 8 24 11 20 12 14 10 13 11 12 11 9 9 9 11 13 17 14 24 9 19 8 22 6 23 4 26 1 17v13l-2 26-4 22-4 16-9 25-10 21-12 20-14 19-9 10-7 8-8 8-8 7-10 8-17 12-21 12-15 7-21 8-23 6-30 5-14 1h-20l-22-2-26-5-20-6-25-10-21-11-17-11-12-9-10-9-8-7-12-12-9-11-8-10-10-15-9-16-8-17-5-12-7-22-5-24-2-16-1-27 2-25 4-24 8-28 8-19 8-16 9-16 10-14 10-13 7-7 7-8 7-7 8-7 18-14 19-12 16-8 15-7 20-7 19-5 24-4zm0 82-23 4-17 5-16 7-16 9-15 11-10 9-11 11-13 17-11 19-8 19-5 19-3 16v38l5 25 5 15 8 18 11 18 8 10 11 12 13 12 14 10 18 10 20 8 19 5 13 2 12 1h15l19-2 22-5 21-8 15-8 12-8 14-11 15-15v-2h2l10-14 8-13 8-17 6-18 4-17 2-21-1-26-4-21-7-21-11-23-11-16-12-14-8-8-14-11-15-10-21-10-18-6-20-4-7-1z"/>
<path transform="translate(357,221)" d="m0 0h34l20 4 19 7 17 9 16 12 16 16 12 17 8 16 6 16 4 18 1 7v27l-3 17-5 16-6 15-12 19-12 14-13 12-17 11-16 8-19 6-15 3-10 1h-17l-21-3-17-5-21-10-12-8-11-9-13-13-10-14-8-14-5-11-6-20-3-20v-17l3-21 5-17 8-18 9-14 9-12 12-12 16-12 16-9 14-6 20-5zm15 81-14 2-14 7-10 9-6 8-4 8-4 16v9l4 16 6 11 8 9 11 7 12 5 7 1h12l10-2 13-6 9-7 8-9 6-13 2-9v-16l-3-11-6-12-10-11-14-8-9-3z"/>
<path transform="translate(707,221)" d="m0 0h35l20 4 19 7 15 8 14 10 13 12 9 10 9 13 9 17 7 20 3 16 1 22-2 21-5 19-6 15-8 14-8 11-10 12h-2l-2 4-14 11-15 9-15 7-21 6-10 2-10 1h-18l-20-3-20-6-16-8-10-6-13-10-16-16-10-14-9-16-6-15-4-16-2-12v-27l4-21 6-18 11-21 12-16 15-15 15-11 10-6 19-8 15-4zm16 81-14 2-16 8-5 4v2h-2l-8 11-5 11-2 9v15l4 14 6 10 9 10 11 7 11 4 7 1h12l13-3 13-7 11-10 7-12 4-16v-11l-2-10-5-12-8-11-10-8-11-5-6-2z"/>
<path transform="translate(830,918)" d="m0 0h8l12 3 11 7 9 9 7 8 9 10 7 8 9 10 7 8 9 10 7 8 9 10v2h2l9 11 7 7 7 8 9 10 9 11 8 11 5 11 2 10v13l-4 15-5 9-8 10-12 14-12 13-7 8-9 10-7 8-11 12-9 11-7 7-7 8-9 10-9 11-7 7-3 4h-2l-2 4-11 7-10 3h-15l-11-4-8-6-8-9-5-11-1-4v-12l4-13 8-11 12-13 7-8 9-10 1-2h2l2-4 13-14 9-11 6-7h2l2-4 13-14 9-11 7-7 1-3-9-11-9-10-7-8-1-3h-2l-7-8-9-10-9-11-7-7-7-8-9-10-9-11-7-7-10-13-4-9-1-4v-13l4-12 7-10 8-7 12-5z"/>
<path transform="translate(382,918)" d="m0 0 13 1 12 5 11 10 5 8 3 9 1 8-2 12-6 12-7 9h-2l-2 4-11 12-7 8-9 10-7 8-9 10-1 2h-2l-2 4-13 14-7 8-9 10-7 8-4 5 1 4 11 12 7 8 9 10 7 8 9 10 7 8 9 10 7 8 9 10 7 8 9 10 9 12 5 12 1 10-3 13-5 9-7 8-10 6-9 3h-15l-9-3-7-4-10-9-9-10-7-8-11-12-7-8-12-14-13-14-7-8-12-14-14-15-9-11-11-12-8-13-4-12v-20l4-14 7-11 13-15 9-10 1-2h2l2-4 13-14 7-8 9-10 7-8 9-10 7-8 18-20 12-14 8-9h2v-2l11-7 6-2z"/>
<path transform="translate(644,888)" d="m0 0h11l8 2 10 5 8 7 6 10 3 8 1 11-4 20-13 55-12 50-19 80-12 50-14 58-8 32-6 12-5 5-7 6-9 4-4 1h-16l-10-3-10-7-7-8-5-11-1-3v-15l8-35 12-50 17-71 21-88 14-59 9-36 4-10 8-10 11-7 5-2z"/>
<path transform="translate(596,1531)" d="m0 0h18l11 4 8 6 8 9 5 12 1 5v8l-3 12-7 11-9 8-12 5-5 1h-12l-13-4-8-6-8-9-5-11-1-5v-11l4-13 7-10 7-6 10-5z"/>
</svg>
