<svg width="2225" height="1038" viewBox="0 0 2225 1038" fill="none" xmlns="http://www.w3.org/2000/svg">
<path d="M43.5439 317.051C85.9971 223.778 156.524 144.627 245.437 88.602C289.68 60.7574 338.635 38.6089 391.174 23.5056C443.362 8.07422 499.13 0.0161963 556.693 0.0161963C630.492 0.0161963 701.379 13.4503 766.143 37.9566C771.558 39.9499 776.581 41.9512 781.605 44.3091C839.907 68.1267 893.181 101.675 938.867 141.609C953.625 154.683 967.649 168.441 981.707 183.872C1006.52 210.376 1032.07 240.911 1056.91 271.769C1061.94 278.122 1067.35 284.839 1072.37 291.232C1086.04 308.66 1216.7 487.145 1239.72 519.02C1251.25 535.104 1264.92 553.221 1279.68 573.012C1282.91 577.371 1286.49 582.087 1290.08 586.77C1314.57 619.306 1341.91 653.54 1367.11 683.746C1379.69 698.817 1392.31 712.903 1403.1 724.664C1414.24 736.721 1424.32 746.452 1431.53 752.837C1462.45 779.997 1498.82 802.145 1538.74 817.249C1578.7 832.352 1622.24 840.738 1668.32 840.738C1699.98 840.738 1730.55 836.703 1759.33 829.334C1774.09 825.635 1788.5 820.947 1802.52 815.247C1864.44 791.069 1917.33 750.151 1954.41 698.813C1973.1 672.998 1987.86 644.821 1997.95 614.615C2007.65 584.408 2013.41 552.565 2013.41 519.016C2013.41 474.395 2003.67 432.46 1986.42 393.863C1960.13 336.173 1916.24 287.197 1861.17 252.303C1833.48 234.842 1803.26 221.44 1770.86 212.037C1738.49 202.634 1704.3 197.298 1668.32 197.298C1622.24 197.622 1578.7 205.685 1538.74 220.755C1498.82 236.183 1462.45 258.003 1431.53 285.163C1424.32 291.552 1414.24 301.607 1403.1 313.368C1383.66 334.5 1360.64 361.66 1337.59 390.197C1328.59 401.597 1319.6 412.998 1310.6 424.726C1276.06 377.78 1215.61 295.251 1183.95 252.627C1189.33 245.91 1194.74 239.229 1200.12 232.512C1214.53 215.375 1228.93 198.963 1243.31 183.86C1257.72 168.429 1271.39 154.671 1286.15 141.597C1335.8 97.9564 1394.45 62.4143 1458.87 37.9404C1523.64 13.4341 1594.55 0 1668.32 0C1744.96 0 1818.37 14.4469 1885.28 40.9505C1985.33 80.1995 2069.92 145.952 2130.02 228.805C2159.88 270.088 2183.61 316.018 2200.16 364.67C2216.36 413.662 2225 465.328 2225 519.024C2225 590.477 2209.54 658.916 2181.46 720.965C2139.01 814.567 2068.48 893.425 1979.95 949.447C1935.32 977.295 1886.37 999.407 1833.83 1014.84C1781.65 1029.94 1725.87 1038 1668.31 1038C1594.55 1038 1523.63 1024.57 1458.87 1000.1C1394.44 975.59 1336.15 940.04 1286.49 896.764L1286.14 896.435C1271.38 883.69 1257.71 869.571 1243.3 854.14C1218.49 827.636 1192.94 797.134 1168.1 766.271C1163.07 759.882 1157.66 753.493 1152.64 747.137C1138.97 729.348 960.092 484.783 945.364 464.996C942.096 460.637 938.511 455.954 934.93 451.238C910.434 419.03 883.095 384.472 857.898 354.298C845.318 339.195 832.702 325.105 821.911 313.376C810.769 301.287 800.683 291.556 793.482 285.171C762.558 258.011 726.184 236.191 686.26 220.763C676.526 217.093 666.826 214.083 656.744 211.032C625.082 202.322 591.628 197.635 556.693 197.306C508.834 197.631 463.495 206.349 422.489 222.793C360.602 246.939 307.676 287.857 270.637 339.195C251.907 365.042 237.149 393.219 227.098 423.389C217.011 453.596 211.601 485.471 211.601 519.02C211.601 563.641 221.335 605.904 238.588 644.137C264.875 701.827 308.767 751.168 363.835 785.697C391.526 803.158 421.746 816.92 454.148 825.963C486.163 835.366 520.706 840.742 556.693 840.742C602.766 840.742 646.31 832.356 686.265 817.253C726.189 802.149 762.562 780.001 793.486 752.841C800.692 746.452 810.778 736.397 821.916 724.668C841.35 703.865 864.399 676.344 887.423 647.844C896.766 636.439 905.766 624.678 914.762 612.95C917.643 616.977 920.524 621.012 923.757 625.367C983.146 706.551 1020.58 757.885 1041.07 785.701C1035.69 792.418 1030.28 798.807 1024.9 805.524C1010.49 822.625 996.083 839.073 981.712 854.14C967.658 869.567 953.63 883.69 938.872 896.435C889.218 940.039 830.564 975.59 766.147 1000.1C701.379 1024.57 630.496 1038 556.698 1038C480.057 1038 406.64 1023.59 340.082 997.41C239.683 957.833 155.129 892.08 95.0015 809.195C65.1639 767.948 41.0234 722.31 24.8574 673.33C8.64795 624.678 0 572.688 0 519.024C0 447.572 15.462 379.133 43.5439 317.051Z" fill="url(#paint0_linear_237_8)"/>
<defs>
<linearGradient id="paint0_linear_237_8" x1="531" y1="452" x2="1768" y2="443.5" gradientUnits="userSpaceOnUse">
<stop stop-color="#C9C096"/>
<stop offset="1" stop-color="#B3A36C"/>
</linearGradient>
</defs>
</svg>
