<?xml version="1.0" encoding="UTF-8"?>
<svg version="1.1" viewBox="0 0 2048 2048" width="1280" height="1280" xmlns="http://www.w3.org/2000/svg">
<path transform="translate(1033,317)" d="m0 0 20 1 33 4 36 7 36 10 28 10 26 11 27 13 23 13 22 14 20 14 13 10 22 18 13 12 15 14 9 9 7 8 11 12 9 11 11 14 14 19 15 23 13 22 15 29 9 19 13 34 9 28 8 32 6 33 3 24 2 36v22l-2 40-4 33-5 28-7 30-9 29-10 28-13 30-16 31-14 23-10 15-10 14-10 13-8 10-11 13-14 15-2 3h-2v2h-2v2h-2v2h-2v2h-2v2h-2v2l-8 7-7 7-8 7-12 11-20 20-7 8-13 16-14 19-13 21-9 16-8 16-10 22-10 28-8 28-5 23-4 27-3 29h18l17 3 14 5 14 7 11 8 10 9 10 11 9 14 8 17 5 17 2 11v27l-4 18-5 13-7 13-8 11-7 8h-2l1 4 9 9 7 10 7 12 7 21 2 11v27l-4 19-4 12-8 16-8 12-9 10-1 2h-2l-1 3-13 10-12 7-15 6-16 4-8 1h-45l1 7-3 26-6 20-7 16-11 17-7 9-16 16-10 7-15 9-17 7-19 5-17 2h-255l-18-2-19-5-16-7-14-8-10-8-10-9-7-7-10-13-10-17-6-15-5-17-2-14-1-18-45-1-17-3-17-6-16-9-10-8-12-12-8-11-8-14-7-16-4-16-1-7v-27l4-18 6-15 6-11 8-11 6-7 2-1-1-4-8-9-10-15-7-15-5-19-1-6v-24l3-17 4-13 5-12 9-15 8-10 5-6h2v-2l13-10 11-7 21-8h2l-9-11-11-15-10-18-8-16h-29l-22-3-17-4-21-7-20-9-17-10-16-12-11-9-19-19-11-14-9-13-10-17-9-19-9-27-5-25-2-19v-20l2-19 5-25 4-14-22-12-16-10-13-10-10-9-8-7-7-7-7-8-12-15-11-17-10-18-9-21-7-21-5-21-4-28-1-22 2-31 5-28 7-25 10-24 8-16 9-15 10-14 9-11 12-13 9-9 11-9 8-6 10-7 15-9 17-9-7-27-3-18-1-12v-21l2-19 5-25 8-24 7-16 12-21 8-12 10-13 12-13 12-12 14-11 10-7 15-9 16-8 21-8 19-5 19-3 10-1h28l2-5 7-16 10-17 10-14 11-12 5-6 8-7 14-11 13-8 16-8 15-6 22-6 23-3h29l24 3 23 6 15 6 17 8 16 10 13 10 10 9 11 11 10 13 10 16 8 16 6 16 5 18 3 18 1 13v915l-2 20-5 21-8 22-7 14-10 16-10 13-2 2 86 1v-1129l2-14 5-13 5-9 8-10 7-7 14-9 13-5zm2 65-3 3-1 5v1125h108l1-1 4-41 6-35 8-32 9-29 11-28 13-28 12-22 14-23 12-17 12-16 9-11 10-11 7-8 7-7v-2l4-2v-2l4-2 10-10 8-7 10-9 15-14 13-13v-2h2l7-8 11-13 13-17 12-17 12-19 13-24 12-25 9-23 10-30 6-25 6-31 3-26 1-16v-54l-3-31-5-32-8-34-10-32-10-26-11-24-12-24-15-25-8-12-13-18-11-14-12-14-9-10-24-24-11-9-11-10-19-14-24-16-19-11-23-12-20-9-24-9-21-7-32-8-27-5-24-3zm-311 1-19 4-13 5-14 7-12 9-11 10-9 11-7 11-5 9v3l16 7 16 9 14 10 13 10 13 12 13 13 10 13 8 14 4 10 1 4v9l-4 9-6 7-12 6-8 2h-7l-11-4-9-8-12-16-8-11-9-10-17-12-15-9-16-7-16-5-10-2-10-1h-25l-19 3-18 5-18 8-14 8-14 10-13 12-5 5-10 11-10 15-10 19-7 21-3 16-1 9v20l3 21 5 17 1 2h40l21 3 21 6 19 8 17 9 14 10 13 11 12 12 7 10 3 9v10l-3 9-6 8-8 6-9 3h-11l-10-4-10-8-1-2h-2l-2-4h-2v-2l-11-9-14-9-13-6-16-5-11-2h-28l-16 3-21 7-23 11-19 13-13 11-12 12-12 16-9 14-8 16-7 18-5 18-3 15-1 9v38l3 20 5 19 7 19 10 20 7 10 9 12 12 13 12 11 17 12 16 9 8 4 4-2 8-10 16-16 14-11 10-8 21-14 18-10 18-8 13-4 6-1h19l10 4 7 6 6 12 1 9-2 10-6 10-8 6-13 5-21 7-17 8-17 11-13 11-7 6-7 8-9 12-8 13-8 18-6 20-3 17v35l3 17 5 18 7 16 8 15 12 16 16 16 17 12 10 6 16 7 20 6 16 3 9 1h12l4-27 5-18 7-15 6-11 10-13 4-4v-2l4-2 10-9 14-9 11-5 11-3h15l10 5 8 9 4 10v13l-4 9-4 6-5 4-19 10-10 9-7 9-5 11-4 15-1 18 2 17 5 17 7 16 9 14 11 13 10 9 14 9 14 7 15 5 18 3h28l17-3 18-6 19-10 12-9 5-4v-2l4-2 9-11 9-14 6-14 5-16 2-13 1-13v-895l-1-17-4-18-6-17-9-16-9-11-5-6-11-9-10-7-17-9-18-6-15-3zm-93 1196-11 2-14 7-10 10-6 12-3 14v9l3 13 6 12 9 9 8 5 12 4 7 1h584l12-3 13-7 9-9 6-10 3-10 1-12-2-12-5-12-7-9-9-7-10-5-8-2zm1 162-12 2-12 6-10 9-7 11-4 12v19l5 14 9 12 10 7 9 4 9 2h587l12-3 11-6 10-9 7-12 3-11v-16l-5-15-7-10-9-8-10-5-6-2-10-1zm100 162v12l4 17 4 10 9 13 11 11 14 8 11 4 10 2h256l16-4 14-7 10-8 7-7 7-11 5-12 3-13 1-14-1-1z"/>
<path transform="translate(1116,460)" d="m0 0h12l18 6 27 12 27 14 22 14 14 10 13 10 13 11 8 7 8 8 7 6 7 8 12 13 11 14 14 19 12 19 11 19 11 23 11 27 10 31 6 26 5 30 3 37v15l-2 9-6 10-7 6-10 4h-16l-9-4-7-6-6-10-2-9-2-35-3-24-6-28-9-29-11-27-11-22-12-20-12-17-11-14-12-13-7-8-8-8-8-7-13-11-15-11-15-10-19-11-16-8-18-8-19-8-9-8-5-8-2-8v-8l4-12 9-10 9-5z"/>
<path transform="translate(1562,239)" d="m0 0h13l10 4 8 7 6 8 3 9v9l-3 9-6 8-2 3h-2l-2 4-138 138-9 7-10 4h-13l-12-6-5-5-6-8-3-10v-7l3-10 6-8 9-10 135-135h2v-2l11-7z"/>
<path transform="translate(991,4)" d="m0 0h16l10 4 8 7 4 6 2 6 1 8v202l-1 13-6 12-7 6-9 4-5 1h-11l-11-4-7-6-5-8-2-6-1-7v-209l3-12 4-6 5-5 8-5z"/>
<path transform="translate(1604,809)" d="m0 0h195l15 1 8 3 10 9 5 11 1 5v7l-2 9-7 10-6 5-11 4-10 1h-201l-13-2-10-6-7-9-3-8v-14l4-11 8-9 8-4 3-1z"/>
<path transform="translate(1419,1233)" d="m0 0h10l8 3 9 6 147 147 7 11 2 6v10l-4 10-4 6-8 7-9 4-11 1-10-3-11-8-143-143-8-11-3-9 1-12 4-9 7-8 9-6z"/>
</svg>
